<mxfile host="app.diagrams.net" agent="Mozilla/5.0 (Macintosh; Intel Mac OS X 10.15; rv:144.0) Gecko/20100101 Firefox/144.0" version="28.2.8">
  <diagram name="Page-1" id="Rj1dO5r0o6vdtNth5Kvn">
    <mxGraphModel dx="1135" dy="792" grid="1" gridSize="10" guides="1" tooltips="1" connect="1" arrows="1" fold="1" page="1" pageScale="1" pageWidth="827" pageHeight="1169" math="0" shadow="0">
      <root>
        <mxCell id="0" />
        <mxCell id="1" parent="0" />
        <mxCell id="YwwxYNbH1Q4O6F-gPvWA-10" value="" style="endArrow=classic;html=1;rounded=0;" edge="1" parent="1" source="YwwxYNbH1Q4O6F-gPvWA-21" target="8UoSEGxeWdp93AbzUFEN-13">
          <mxGeometry width="50" height="50" relative="1" as="geometry">
            <mxPoint x="414" y="430" as="sourcePoint" />
            <mxPoint x="580" y="500" as="targetPoint" />
          </mxGeometry>
        </mxCell>
        <mxCell id="YwwxYNbH1Q4O6F-gPvWA-12" value="" style="endArrow=classic;html=1;rounded=0;" edge="1" parent="1" source="EuM4S6Rn1pIJKmvvBv3M-6" target="YwwxYNbH1Q4O6F-gPvWA-54">
          <mxGeometry width="50" height="50" relative="1" as="geometry">
            <mxPoint x="580" y="110" as="sourcePoint" />
            <mxPoint x="412.5" y="180" as="targetPoint" />
          </mxGeometry>
        </mxCell>
        <mxCell id="8UoSEGxeWdp93AbzUFEN-4" value="&lt;div&gt;&lt;font style=&quot;font-size: 16px;&quot;&gt;&lt;b&gt;&lt;font&gt;Virtual machine (VM) cluster&lt;/font&gt;&lt;/b&gt;&lt;/font&gt;&lt;/div&gt;&lt;font style=&quot;font-size: 16px;&quot;&gt;&lt;b&gt;(Hyper-V)&lt;/b&gt;&lt;/font&gt;" style="rounded=1;whiteSpace=wrap;html=1;fillColor=#fff2cc;strokeColor=#d6b656;verticalAlign=top;" parent="1" vertex="1">
          <mxGeometry x="8.5" y="900" width="811" height="250" as="geometry" />
        </mxCell>
        <mxCell id="8UoSEGxeWdp93AbzUFEN-5" value="&lt;div&gt;&lt;font style=&quot;font-size: 12px;&quot;&gt;&lt;b&gt;ge-node-1&lt;/b&gt;&lt;/font&gt;&lt;/div&gt;&lt;div&gt;&lt;font style=&quot;font-size: 12px;&quot;&gt;Rocky Linux 9&lt;/font&gt;&lt;/div&gt;&lt;font style=&quot;font-size: 12px;&quot;&gt;IP: 172.16.3.85&lt;/font&gt;" style="rounded=1;whiteSpace=wrap;html=1;fontSize=16;fillColor=#dae8fc;strokeColor=#6c8ebf;" parent="1" vertex="1">
          <mxGeometry x="20" y="960" width="250" height="80" as="geometry" />
        </mxCell>
        <mxCell id="8UoSEGxeWdp93AbzUFEN-6" value="&lt;div&gt;&lt;font style=&quot;font-size: 12px;&quot;&gt;&lt;b&gt;ge-node-2&lt;/b&gt;&lt;/font&gt;&lt;/div&gt;&lt;div&gt;&lt;font style=&quot;font-size: 12px;&quot;&gt;Rocky Linux 9&lt;/font&gt;&lt;/div&gt;&lt;div&gt;&lt;font style=&quot;font-size: 12px;&quot;&gt;IP: 172.16.3.86&lt;/font&gt;&lt;/div&gt;" style="rounded=1;whiteSpace=wrap;html=1;fontSize=16;fillColor=#dae8fc;strokeColor=#6c8ebf;" parent="1" vertex="1">
          <mxGeometry x="289" y="960" width="250" height="80" as="geometry" />
        </mxCell>
        <mxCell id="8UoSEGxeWdp93AbzUFEN-13" value="&lt;font style=&quot;font-size: 16px;&quot;&gt;&lt;b&gt;Kubernetes cluster&lt;br&gt;(RKE2)&lt;/b&gt;&lt;/font&gt;" style="rounded=1;whiteSpace=wrap;html=1;fillColor=#dae8fc;strokeColor=#6c8ebf;verticalAlign=top;" parent="1" vertex="1">
          <mxGeometry x="16" y="520" width="796" height="160" as="geometry" />
        </mxCell>
        <mxCell id="8UoSEGxeWdp93AbzUFEN-16" value="&lt;div&gt;&lt;b&gt;&lt;font style=&quot;font-size: 12px;&quot;&gt;ge-smartmet-processing&lt;/font&gt;&lt;/b&gt;&lt;/div&gt;&lt;font style=&quot;font-size: 12px;&quot;&gt;Rocky Linux 9&lt;br&gt;&lt;font&gt;172.16.3.89&lt;/font&gt;&lt;/font&gt;" style="rounded=1;whiteSpace=wrap;html=1;fontSize=16;fillColor=#d5e8d4;strokeColor=#82b366;" parent="1" vertex="1">
          <mxGeometry x="19" y="1050" width="251" height="80" as="geometry" />
        </mxCell>
        <mxCell id="8UoSEGxeWdp93AbzUFEN-17" value="&lt;div&gt;&lt;b&gt;&lt;font style=&quot;font-size: 12px;&quot;&gt;ge-smartmet-analysis&lt;/font&gt;&lt;/b&gt;&lt;/div&gt;&lt;font style=&quot;font-size: 12px;&quot;&gt;Rocky Linux 9&lt;br&gt;&lt;font&gt;172.16.3.88&lt;/font&gt;&lt;/font&gt;" style="rounded=1;whiteSpace=wrap;html=1;fontSize=16;fillColor=#d5e8d4;strokeColor=#82b366;" parent="1" vertex="1">
          <mxGeometry x="290.5" y="1050" width="247" height="80" as="geometry" />
        </mxCell>
        <mxCell id="8UoSEGxeWdp93AbzUFEN-20" value="&lt;font style=&quot;font-size: 12px;&quot;&gt;&lt;b&gt;APP&lt;/b&gt;&lt;br&gt;&lt;/font&gt;&lt;div&gt;&lt;font style=&quot;font-size: 12px;&quot;&gt;&lt;font&gt;SmartMet API&amp;nbsp;Server&lt;/font&gt;&lt;/font&gt;&lt;/div&gt;" style="rounded=1;whiteSpace=wrap;html=1;fontSize=16;fillColor=#1ba1e2;strokeColor=#006EAF;fontColor=#ffffff;" parent="1" vertex="1">
          <mxGeometry x="34" y="580" width="120" height="60" as="geometry" />
        </mxCell>
        <mxCell id="8UoSEGxeWdp93AbzUFEN-21" value="&lt;div&gt;&lt;font style=&quot;font-size: 12px;&quot;&gt;&lt;b&gt;APP&lt;/b&gt;&lt;/font&gt;&lt;/div&gt;&lt;font style=&quot;font-size: 12px;&quot;&gt;SmartMet Alert&lt;/font&gt;" style="rounded=1;whiteSpace=wrap;html=1;fontSize=16;fillColor=#1ba1e2;strokeColor=#006EAF;fontColor=#ffffff;" parent="1" vertex="1">
          <mxGeometry x="179" y="580" width="120" height="60" as="geometry" />
        </mxCell>
        <mxCell id="8UoSEGxeWdp93AbzUFEN-22" value="&lt;font style=&quot;font-size: 12px;&quot;&gt;&lt;b&gt;APP&lt;/b&gt;&lt;br&gt;GeoWeb&lt;/font&gt;" style="rounded=1;whiteSpace=wrap;html=1;fontSize=16;fillColor=#1ba1e2;strokeColor=#006EAF;fontColor=#ffffff;" parent="1" vertex="1">
          <mxGeometry x="330" y="580" width="120" height="60" as="geometry" />
        </mxCell>
        <mxCell id="EuM4S6Rn1pIJKmvvBv3M-1" value="" style="sketch=0;html=1;dashed=0;whitespace=wrap;fillColor=#2875E2;strokeColor=#ffffff;points=[[0.005,0.63,0],[0.1,0.2,0],[0.9,0.2,0],[0.5,0,0],[0.995,0.63,0],[0.72,0.99,0],[0.5,1,0],[0.28,0.99,0]];verticalLabelPosition=bottom;align=center;verticalAlign=top;shape=mxgraph.kubernetes.icon;prIcon=pod" parent="1" vertex="1">
          <mxGeometry x="121.5" y="560" width="45" height="38" as="geometry" />
        </mxCell>
        <mxCell id="EuM4S6Rn1pIJKmvvBv3M-2" value="" style="sketch=0;html=1;dashed=0;whitespace=wrap;fillColor=#2875E2;strokeColor=#ffffff;points=[[0.005,0.63,0],[0.1,0.2,0],[0.9,0.2,0],[0.5,0,0],[0.995,0.63,0],[0.72,0.99,0],[0.5,1,0],[0.28,0.99,0]];verticalLabelPosition=bottom;align=center;verticalAlign=top;shape=mxgraph.kubernetes.icon;prIcon=pod" parent="1" vertex="1">
          <mxGeometry x="269" y="560" width="45" height="38" as="geometry" />
        </mxCell>
        <mxCell id="EuM4S6Rn1pIJKmvvBv3M-3" value="" style="sketch=0;html=1;dashed=0;whitespace=wrap;fillColor=#2875E2;strokeColor=#ffffff;points=[[0.005,0.63,0],[0.1,0.2,0],[0.9,0.2,0],[0.5,0,0],[0.995,0.63,0],[0.72,0.99,0],[0.5,1,0],[0.28,0.99,0]];verticalLabelPosition=bottom;align=center;verticalAlign=top;shape=mxgraph.kubernetes.icon;prIcon=pod" parent="1" vertex="1">
          <mxGeometry x="425" y="560" width="45" height="38" as="geometry" />
        </mxCell>
        <mxCell id="EuM4S6Rn1pIJKmvvBv3M-6" value="&lt;div&gt;&lt;b&gt;&lt;font style=&quot;font-size: 12px;&quot;&gt;Internet&lt;/font&gt;&lt;/b&gt;&lt;/div&gt;" style="html=1;verticalLabelPosition=bottom;align=center;labelBackgroundColor=#ffffff;verticalAlign=top;strokeWidth=2;strokeColor=#0080F0;shadow=0;dashed=0;shape=mxgraph.ios7.icons.cloud;fontSize=16;" parent="1" vertex="1">
          <mxGeometry x="355" y="60" width="115" height="60" as="geometry" />
        </mxCell>
        <mxCell id="EuM4S6Rn1pIJKmvvBv3M-18" value="&lt;font style=&quot;font-size: 12px;&quot;&gt;&lt;b&gt;APP&lt;/b&gt;&lt;br&gt;Reverse Proxy&lt;/font&gt;" style="rounded=1;whiteSpace=wrap;html=1;fontSize=16;fillColor=#1ba1e2;strokeColor=#006EAF;fontColor=#ffffff;" parent="1" vertex="1">
          <mxGeometry x="480" y="580" width="120" height="60" as="geometry" />
        </mxCell>
        <mxCell id="YwwxYNbH1Q4O6F-gPvWA-2" value="&lt;font style=&quot;font-size: 12px;&quot;&gt;&lt;b&gt;APP&lt;br&gt;&lt;/b&gt;&lt;/font&gt;&lt;div&gt;&lt;font style=&quot;font-size: 12px;&quot;&gt;Rook CEPH&lt;/font&gt;&lt;/div&gt;" style="rounded=1;whiteSpace=wrap;html=1;fontSize=16;fillColor=#1ba1e2;strokeColor=#006EAF;fontColor=#ffffff;" vertex="1" parent="1">
          <mxGeometry x="633" y="580" width="120" height="60" as="geometry" />
        </mxCell>
        <mxCell id="YwwxYNbH1Q4O6F-gPvWA-8" value="" style="endArrow=classic;html=1;rounded=0;" edge="1" parent="1" source="YwwxYNbH1Q4O6F-gPvWA-19" target="YwwxYNbH1Q4O6F-gPvWA-21">
          <mxGeometry width="50" height="50" relative="1" as="geometry">
            <mxPoint x="414" y="340" as="sourcePoint" />
            <mxPoint x="414" y="370" as="targetPoint" />
          </mxGeometry>
        </mxCell>
        <mxCell id="YwwxYNbH1Q4O6F-gPvWA-14" value="" style="sketch=0;html=1;dashed=0;whitespace=wrap;fillColor=#2875E2;strokeColor=#ffffff;points=[[0.005,0.63,0],[0.1,0.2,0],[0.9,0.2,0],[0.5,0,0],[0.995,0.63,0],[0.72,0.99,0],[0.5,1,0],[0.28,0.99,0]];verticalLabelPosition=bottom;align=center;verticalAlign=top;shape=mxgraph.kubernetes.icon;prIcon=pod" vertex="1" parent="1">
          <mxGeometry x="570" y="560" width="45" height="38" as="geometry" />
        </mxCell>
        <mxCell id="YwwxYNbH1Q4O6F-gPvWA-15" value="" style="sketch=0;html=1;dashed=0;whitespace=wrap;fillColor=#2875E2;strokeColor=#ffffff;points=[[0.005,0.63,0],[0.1,0.2,0],[0.9,0.2,0],[0.5,0,0],[0.995,0.63,0],[0.72,0.99,0],[0.5,1,0],[0.28,0.99,0]];verticalLabelPosition=bottom;align=center;verticalAlign=top;shape=mxgraph.kubernetes.icon;prIcon=pod" vertex="1" parent="1">
          <mxGeometry x="725" y="560" width="45" height="38" as="geometry" />
        </mxCell>
        <mxCell id="YwwxYNbH1Q4O6F-gPvWA-18" value="" style="endArrow=classic;html=1;rounded=0;" edge="1" parent="1" source="YwwxYNbH1Q4O6F-gPvWA-54" target="YwwxYNbH1Q4O6F-gPvWA-19">
          <mxGeometry width="50" height="50" relative="1" as="geometry">
            <mxPoint x="413.0397510462101" y="230" as="sourcePoint" />
            <mxPoint x="413.53125" y="290" as="targetPoint" />
          </mxGeometry>
        </mxCell>
        <mxCell id="YwwxYNbH1Q4O6F-gPvWA-19" value="&lt;font&gt;&lt;b&gt;Firewall / Router&lt;/b&gt;&lt;/font&gt;" style="image;aspect=fixed;perimeter=ellipsePerimeter;html=1;align=center;shadow=0;dashed=0;spacingTop=3;image=img/lib/active_directory/firewall.svg;" vertex="1" parent="1">
          <mxGeometry x="398.75" y="260" width="30.5" height="50" as="geometry" />
        </mxCell>
        <mxCell id="YwwxYNbH1Q4O6F-gPvWA-22" value="" style="image;aspect=fixed;html=1;points=[];align=center;fontSize=12;image=img/lib/azure2/analytics/HD_Insight_Clusters.svg;" vertex="1" parent="1">
          <mxGeometry x="757.8" y="498" width="63" height="62" as="geometry" />
        </mxCell>
        <mxCell id="YwwxYNbH1Q4O6F-gPvWA-25" value="" style="endArrow=classic;startArrow=classic;html=1;rounded=0;" edge="1" parent="1" source="EuM4S6Rn1pIJKmvvBv3M-12" target="YwwxYNbH1Q4O6F-gPvWA-2">
          <mxGeometry width="50" height="50" relative="1" as="geometry">
            <mxPoint x="630" y="700" as="sourcePoint" />
            <mxPoint x="680" y="650" as="targetPoint" />
          </mxGeometry>
        </mxCell>
        <mxCell id="YwwxYNbH1Q4O6F-gPvWA-26" value="" style="endArrow=classic;html=1;rounded=0;" edge="1" parent="1" source="EuM4S6Rn1pIJKmvvBv3M-12" target="8UoSEGxeWdp93AbzUFEN-20">
          <mxGeometry width="50" height="50" relative="1" as="geometry">
            <mxPoint x="110" y="780" as="sourcePoint" />
            <mxPoint x="160" y="730" as="targetPoint" />
          </mxGeometry>
        </mxCell>
        <mxCell id="YwwxYNbH1Q4O6F-gPvWA-28" value="" style="endArrow=classic;html=1;rounded=0;" edge="1" parent="1" source="EuM4S6Rn1pIJKmvvBv3M-12" target="8UoSEGxeWdp93AbzUFEN-21">
          <mxGeometry width="50" height="50" relative="1" as="geometry">
            <mxPoint x="390" y="700" as="sourcePoint" />
            <mxPoint x="440" y="650" as="targetPoint" />
          </mxGeometry>
        </mxCell>
        <mxCell id="YwwxYNbH1Q4O6F-gPvWA-29" value="" style="endArrow=classic;html=1;rounded=0;" edge="1" parent="1" source="EuM4S6Rn1pIJKmvvBv3M-12" target="8UoSEGxeWdp93AbzUFEN-22">
          <mxGeometry width="50" height="50" relative="1" as="geometry">
            <mxPoint x="390" y="700" as="sourcePoint" />
            <mxPoint x="440" y="650" as="targetPoint" />
          </mxGeometry>
        </mxCell>
        <mxCell id="YwwxYNbH1Q4O6F-gPvWA-30" value="" style="endArrow=classic;html=1;rounded=0;" edge="1" parent="1" source="EuM4S6Rn1pIJKmvvBv3M-12" target="EuM4S6Rn1pIJKmvvBv3M-18">
          <mxGeometry width="50" height="50" relative="1" as="geometry">
            <mxPoint x="390" y="700" as="sourcePoint" />
            <mxPoint x="440" y="650" as="targetPoint" />
          </mxGeometry>
        </mxCell>
        <mxCell id="8UoSEGxeWdp93AbzUFEN-7" value="&lt;div&gt;&lt;b&gt;&lt;font style=&quot;font-size: 12px;&quot;&gt;ge-node-3&lt;/font&gt;&lt;/b&gt;&lt;/div&gt;&lt;div&gt;&lt;font style=&quot;font-size: 12px;&quot;&gt;Rocky Linux 9&lt;/font&gt;&lt;/div&gt;&lt;font style=&quot;font-size: 12px;&quot;&gt;IP: 172.16.3.87&lt;/font&gt;" style="rounded=1;whiteSpace=wrap;html=1;fontSize=16;fillColor=#dae8fc;strokeColor=#6c8ebf;" parent="1" vertex="1">
          <mxGeometry x="560" y="960" width="250" height="80" as="geometry" />
        </mxCell>
        <mxCell id="YwwxYNbH1Q4O6F-gPvWA-34" value="" style="pointerEvents=1;shadow=0;dashed=0;html=1;strokeColor=none;fillColor=#4495D1;labelPosition=center;verticalLabelPosition=bottom;verticalAlign=top;align=center;outlineConnect=0;shape=mxgraph.veeam.cluster;" vertex="1" parent="1">
          <mxGeometry x="718" y="880" width="102.8" height="49.2" as="geometry" />
        </mxCell>
        <mxCell id="8UoSEGxeWdp93AbzUFEN-26" value="" style="sketch=0;html=1;dashed=0;whitespace=wrap;fillColor=#2875E2;strokeColor=#ffffff;points=[[0.005,0.63,0],[0.1,0.2,0],[0.9,0.2,0],[0.5,0,0],[0.995,0.63,0],[0.72,0.99,0],[0.5,1,0],[0.28,0.99,0]];verticalLabelPosition=bottom;align=center;verticalAlign=top;shape=mxgraph.kubernetes.icon;prIcon=node" parent="1" vertex="1">
          <mxGeometry x="769.5" y="938" width="50" height="48" as="geometry" />
        </mxCell>
        <mxCell id="8UoSEGxeWdp93AbzUFEN-27" value="" style="sketch=0;html=1;dashed=0;whitespace=wrap;fillColor=#2875E2;strokeColor=#ffffff;points=[[0.005,0.63,0],[0.1,0.2,0],[0.9,0.2,0],[0.5,0,0],[0.995,0.63,0],[0.72,0.99,0],[0.5,1,0],[0.28,0.99,0]];verticalLabelPosition=bottom;align=center;verticalAlign=top;shape=mxgraph.kubernetes.icon;prIcon=node" parent="1" vertex="1">
          <mxGeometry x="500" y="938" width="50" height="48" as="geometry" />
        </mxCell>
        <mxCell id="8UoSEGxeWdp93AbzUFEN-28" value="" style="sketch=0;html=1;dashed=0;whitespace=wrap;fillColor=#2875E2;strokeColor=#ffffff;points=[[0.005,0.63,0],[0.1,0.2,0],[0.9,0.2,0],[0.5,0,0],[0.995,0.63,0],[0.72,0.99,0],[0.5,1,0],[0.28,0.99,0]];verticalLabelPosition=bottom;align=center;verticalAlign=top;shape=mxgraph.kubernetes.icon;prIcon=node" parent="1" vertex="1">
          <mxGeometry x="235" y="938" width="50" height="48" as="geometry" />
        </mxCell>
        <mxCell id="EuM4S6Rn1pIJKmvvBv3M-12" value="&lt;div&gt;&lt;font style=&quot;font-size: 16px;&quot;&gt;&lt;b&gt;Software defined storage / distributed storage system&lt;/b&gt;&lt;/font&gt;&lt;/div&gt;&lt;div&gt;&lt;font style=&quot;font-size: 16px;&quot;&gt;&lt;b&gt;(Rook CEPH)&lt;/b&gt;&lt;/font&gt;&lt;/div&gt;" style="sketch=0;html=1;dashed=0;whitespace=wrap;fillColor=#000000;strokeColor=#ffffff;points=[[0.005,0.63,0],[0.1,0.2,0],[0.9,0.2,0],[0.5,0,0],[0.995,0.63,0],[0.72,0.99,0],[0.5,1,0],[0.28,0.99,0]];verticalLabelPosition=bottom;align=center;verticalAlign=top;shape=mxgraph.kubernetes.icon;prIcon=vol" parent="1" vertex="1">
          <mxGeometry x="374.25" y="730" width="79.5" height="78" as="geometry" />
        </mxCell>
        <mxCell id="YwwxYNbH1Q4O6F-gPvWA-44" value="" style="shadow=0;dashed=0;html=1;labelPosition=center;verticalLabelPosition=bottom;verticalAlign=top;align=center;outlineConnect=0;shape=mxgraph.veeam.3d.vm_linux;" vertex="1" parent="1">
          <mxGeometry x="210" y="970" width="46" height="60" as="geometry" />
        </mxCell>
        <mxCell id="YwwxYNbH1Q4O6F-gPvWA-45" value="" style="shadow=0;dashed=0;html=1;labelPosition=center;verticalLabelPosition=bottom;verticalAlign=top;align=center;outlineConnect=0;shape=mxgraph.veeam.3d.vm_linux;" vertex="1" parent="1">
          <mxGeometry x="746.4" y="970" width="46" height="60" as="geometry" />
        </mxCell>
        <mxCell id="YwwxYNbH1Q4O6F-gPvWA-46" value="" style="shadow=0;dashed=0;html=1;labelPosition=center;verticalLabelPosition=bottom;verticalAlign=top;align=center;outlineConnect=0;shape=mxgraph.veeam.3d.vm_linux;" vertex="1" parent="1">
          <mxGeometry x="472.5" y="970" width="46" height="60" as="geometry" />
        </mxCell>
        <mxCell id="YwwxYNbH1Q4O6F-gPvWA-47" value="" style="shadow=0;dashed=0;html=1;labelPosition=center;verticalLabelPosition=bottom;verticalAlign=top;align=center;outlineConnect=0;shape=mxgraph.veeam.3d.vm_linux;" vertex="1" parent="1">
          <mxGeometry x="210" y="1060" width="46" height="60" as="geometry" />
        </mxCell>
        <mxCell id="YwwxYNbH1Q4O6F-gPvWA-48" value="" style="shadow=0;dashed=0;html=1;labelPosition=center;verticalLabelPosition=bottom;verticalAlign=top;align=center;outlineConnect=0;shape=mxgraph.veeam.3d.vm_linux;" vertex="1" parent="1">
          <mxGeometry x="472.5" y="1060" width="46" height="60" as="geometry" />
        </mxCell>
        <mxCell id="YwwxYNbH1Q4O6F-gPvWA-49" value="LAN details:&#xa;Network:     172.16.3.0/24&#xa;Netmask:    255.255.255.0&#xa;Gateway:    172.16.3.94&#xa;DNS1:         172.16.0.111&#xa;DNS2:         172.16.0.112&#xa;DNS3:         172.16.0.113" style="shape=mxgraph.networks2.icon;aspect=fixed;fillColor=#dae8fc;strokeColor=#6c8ebf;network2IconShadow=1;network2bgFillColor=none;labelPosition=center;verticalLabelPosition=bottom;align=left;verticalAlign=top;network2Icon=mxgraph.networks2.lan;network2IconYOffset=0.0558;network2IconW=1.0834;network2IconH=0.7564;fontStyle=1" vertex="1" parent="1">
          <mxGeometry x="16" y="10" width="57.29" height="40" as="geometry" />
        </mxCell>
        <mxCell id="YwwxYNbH1Q4O6F-gPvWA-54" value="&lt;div&gt;*.apps.nea.gov.ge&lt;/div&gt;&lt;div&gt;172.16.3.91&lt;/div&gt;" style="image;sketch=0;aspect=fixed;html=1;points=[];align=center;fontSize=12;image=img/lib/mscae/App_Service_IPAddress.svg;" vertex="1" parent="1">
          <mxGeometry x="387.5" y="160" width="50" height="42" as="geometry" />
        </mxCell>
        <mxCell id="YwwxYNbH1Q4O6F-gPvWA-21" value="&lt;b&gt;Load Balancer&lt;/b&gt;" style="sketch=0;outlineConnect=0;fontColor=#232F3E;gradientColor=none;fillColor=#8C4FFF;strokeColor=none;dashed=0;verticalLabelPosition=bottom;verticalAlign=top;align=center;html=1;fontSize=12;fontStyle=0;aspect=fixed;pointerEvents=1;shape=mxgraph.aws4.application_load_balancer;" vertex="1" parent="1">
          <mxGeometry x="387.5" y="380" width="50" height="50" as="geometry" />
        </mxCell>
        <mxCell id="YwwxYNbH1Q4O6F-gPvWA-56" value="" style="endArrow=classic;startArrow=classic;html=1;rounded=0;" edge="1" parent="1" source="YwwxYNbH1Q4O6F-gPvWA-67" target="EuM4S6Rn1pIJKmvvBv3M-12">
          <mxGeometry width="50" height="50" relative="1" as="geometry">
            <mxPoint x="214" y="880" as="sourcePoint" />
            <mxPoint x="264" y="830" as="targetPoint" />
          </mxGeometry>
        </mxCell>
        <mxCell id="YwwxYNbH1Q4O6F-gPvWA-57" value="" style="endArrow=classic;startArrow=classic;html=1;rounded=0;" edge="1" parent="1" source="YwwxYNbH1Q4O6F-gPvWA-65" target="EuM4S6Rn1pIJKmvvBv3M-12">
          <mxGeometry width="50" height="50" relative="1" as="geometry">
            <mxPoint x="633" y="850" as="sourcePoint" />
            <mxPoint x="560" y="780" as="targetPoint" />
          </mxGeometry>
        </mxCell>
        <mxCell id="YwwxYNbH1Q4O6F-gPvWA-58" value="" style="endArrow=classic;startArrow=classic;html=1;rounded=0;" edge="1" parent="1" source="YwwxYNbH1Q4O6F-gPvWA-66" target="EuM4S6Rn1pIJKmvvBv3M-12">
          <mxGeometry width="50" height="50" relative="1" as="geometry">
            <mxPoint x="690" y="780" as="sourcePoint" />
            <mxPoint x="740" y="730" as="targetPoint" />
          </mxGeometry>
        </mxCell>
        <mxCell id="YwwxYNbH1Q4O6F-gPvWA-65" value="" style="strokeWidth=2;html=1;shape=mxgraph.flowchart.database;whiteSpace=wrap;fillColor=#1ba1e2;fontColor=#ffffff;strokeColor=#006EAF;" vertex="1" parent="1">
          <mxGeometry x="570" y="980" width="30" height="40" as="geometry" />
        </mxCell>
        <mxCell id="YwwxYNbH1Q4O6F-gPvWA-66" value="" style="strokeWidth=2;html=1;shape=mxgraph.flowchart.database;whiteSpace=wrap;fillColor=#1ba1e2;fontColor=#ffffff;strokeColor=#006EAF;" vertex="1" parent="1">
          <mxGeometry x="299" y="980" width="30" height="40" as="geometry" />
        </mxCell>
        <mxCell id="YwwxYNbH1Q4O6F-gPvWA-67" value="" style="strokeWidth=2;html=1;shape=mxgraph.flowchart.database;whiteSpace=wrap;fillColor=#1ba1e2;fontColor=#ffffff;strokeColor=#006EAF;" vertex="1" parent="1">
          <mxGeometry x="29.64" y="980" width="30" height="40" as="geometry" />
        </mxCell>
      </root>
    </mxGraphModel>
  </diagram>
</mxfile>
